<svg width="25" height="24" viewBox="0 0 25 24" fill="none" xmlns="http://www.w3.org/2000/svg">
<path d="M23.913 10.5H1.08694C0.486634 10.5 0 11.1715 0 12C0 12.8284 0.486634 13.4999 1.08694 13.4999H23.913C24.5133 13.4999 25 12.8284 25 12C25 11.1715 24.5133 10.5 23.913 10.5Z" fill="#A2A2A2"/>
<path d="M1.08694 2.99996H23.913C24.5133 2.99996 25 2.3284 25 1.49998C25 0.671555 24.5133 0 23.913 0H1.08694C0.486634 0 0 0.671555 0 1.49998C0 2.3284 0.486634 2.99996 1.08694 2.99996Z" fill="#A2A2A2"/>
<path d="M23.913 21H1.08694C0.486634 21 0 21.6716 0 22.5C0 23.3285 0.486634 24 1.08694 24H23.913C24.5133 24 25 23.3285 25 22.5C25 21.6716 24.5133 21 23.913 21Z" fill="#A2A2A2"/>
</svg>
