<svg width="65" height="61" viewBox="0 0 65 61" fill="none" xmlns="http://www.w3.org/2000/svg">
<ellipse cx="32.0641" cy="30.5" rx="32.0641" ry="30.5" fill="#9A9A9A"/>
<g clip-path="url(#clip0_46_96)">
<path d="M37.3338 33.4109H26.7944C25.0814 33.413 23.4393 34.1057 22.228 35.3371C21.0168 36.5686 20.3354 38.2381 20.3333 39.9796V46.6623H43.7949V39.9796C43.7928 38.2381 43.1114 36.5686 41.9002 35.3371C40.689 34.1057 39.0468 33.413 37.3338 33.4109Z" fill="white"/>
<path d="M32.0641 30.7606C36.3833 30.7606 39.8846 27.2009 39.8846 22.8097C39.8846 18.4186 36.3833 14.8589 32.0641 14.8589C27.745 14.8589 24.2436 18.4186 24.2436 22.8097C24.2436 27.2009 27.745 30.7606 32.0641 30.7606Z" fill="white"/>
</g>
<defs>
<clipPath id="clip0_46_96">
<rect width="31.2821" height="31.8034" fill="white" transform="translate(16.4231 14.8589)"/>
</clipPath>
</defs>
</svg>
