<svg width="22" height="21" viewBox="0 0 22 21" fill="none" xmlns="http://www.w3.org/2000/svg">
<g clip-path="url(#clip0_31_167)">
<path d="M6.41683 21C7.42935 21 8.25016 20.2165 8.25016 19.25C8.25016 18.2835 7.42935 17.5 6.41683 17.5C5.40431 17.5 4.5835 18.2835 4.5835 19.25C4.5835 20.2165 5.40431 21 6.41683 21Z" fill="black"/>
<path d="M15.5833 21C16.5959 21 17.4167 20.2165 17.4167 19.25C17.4167 18.2835 16.5959 17.5 15.5833 17.5C14.5708 17.5 13.75 18.2835 13.75 19.25C13.75 20.2165 14.5708 21 15.5833 21Z" fill="black"/>
<path d="M5.18283 4.375L4.94175 2.57075C4.85421 1.86261 4.49751 1.20974 3.93928 0.735907C3.38105 0.262079 2.66009 0.000229142 1.91308 0L0 0V2.625H1.91308C1.98807 2.62577 2.06011 2.65302 2.11529 2.70149C2.17048 2.74996 2.2049 2.81623 2.21192 2.8875L3.58692 13.1766C3.67364 13.8853 4.03001 14.5389 4.58834 15.0133C5.14668 15.4877 5.86809 15.7499 6.61558 15.75H18.7L21.9762 4.375H5.18283ZM16.6027 13.125H6.61558C6.54063 13.1244 6.4686 13.0972 6.41352 13.0487C6.35844 13.0001 6.32427 12.9338 6.31767 12.8625L5.53392 7H18.3673L16.6027 13.125Z" fill="#0A2845"/>
</g>
<defs>
<clipPath id="clip0_31_167">
<rect width="22" height="21" fill="white"/>
</clipPath>
</defs>
</svg>
